HIERARCHY
ROOT Hips
{
	OFFSET 0.000000 0.000000 0.000000
	CHANNELS 6 Xposition Yposition Zposition Zrotation Yrotation Xrotation
	JOINT LHipJoint
	{
		OFFSET 0.000000 0.000000 0.000000
		CHANNELS 3 Zrotation Yrotation Xrotation
		JOINT LeftUpLeg
		{
			OFFSET 1.363060 -1.794630 0.839290
			CHANNELS 3 Zrotation Yrotation Xrotation
			JOINT LeftLeg
			{
				OFFSET 2.448110 -6.726130 0.000000
				CHANNELS 3 Zrotation Yrotation Xrotation
				JOINT LeftFoot
				{
					OFFSET 2.562200 -7.039590 0.000000
					CHANNELS 3 Zrotation Yrotation Xrotation
					JOINT LeftToeBase
					{
						OFFSET 0.157640 -0.433110 2.322550
						CHANNELS 3 Zrotation Yrotation Xrotation
						End Site
						{
							OFFSET 0.000000 0.000000 0.000000
						}
					}
				}
			}
		}
	}
	JOINT RHipJoint
	{
		OFFSET 0.000000 0.000000 0.000000
		CHANNELS 3 Zrotation Yrotation Xrotation
		JOINT RightUpLeg
		{
			OFFSET -1.305520 -1.794630 0.839290
			CHANNELS 3 Zrotation Yrotation Xrotation
			JOINT RightLeg
			{
				OFFSET -2.542530 -6.985550 0.000000
				CHANNELS 3 Zrotation Yrotation Xrotation
				JOINT RightFoot
				{
					OFFSET -2.568260 -7.056230 0.000000
					CHANNELS 3 Zrotation Yrotation Xrotation
					JOINT RightToeBase
					{
						OFFSET -0.164730 -0.452590 2.363150
						CHANNELS 3 Zrotation Yrotation Xrotation
						End Site
						{
							OFFSET 0.000000 0.000000 0.000000
						}
					}
				}
			}
		}
	}
	JOINT LowerBack
	{
		OFFSET 0.000000 0.000000 0.000000
		CHANNELS 3 Zrotation Yrotation Xrotation
		JOINT Spine
		{
			OFFSET 0.028270 2.035590 -0.193380
			CHANNELS 3 Zrotation Yrotation Xrotation
			JOINT Spine1
			{
				OFFSET 0.056720 2.048850 -0.042750
				CHANNELS 3 Zrotation Yrotation Xrotation
				JOINT Neck
				{
					OFFSET 0.000000 0.000000 0.000000
					CHANNELS 3 Zrotation Yrotation Xrotation
					JOINT Neck1
					{
						OFFSET -0.054170 1.746240 0.172020
						CHANNELS 3 Zrotation Yrotation Xrotation
						JOINT Head
						{
							OFFSET 0.104070 1.761360 -0.123970
							CHANNELS 3 Zrotation Yrotation Xrotation
							End Site
							{
								OFFSET 0.000000 0.000000 0.000000
							}
						}
					}
				}
				JOINT LeftShoulder
				{
					OFFSET 0.000000 0.000000 0.000000
					CHANNELS 3 Zrotation Yrotation Xrotation
					JOINT LeftArm
					{
						OFFSET 3.362410 1.200890 -0.311210
						CHANNELS 3 Zrotation Yrotation Xrotation
						JOINT LeftForeArm
						{
							OFFSET 4.983000 -0.000000 -0.000000
							CHANNELS 3 Zrotation Yrotation Xrotation
							JOINT LeftHand
							{
								OFFSET 3.483560 -0.000000 -0.000000
								CHANNELS 3 Zrotation Yrotation Xrotation
								JOINT LeftFingerBase
								{
									OFFSET 0.000000 0.000000 0.000000
									CHANNELS 3 Zrotation Yrotation Xrotation
									JOINT LeftHandIndex1
									{
										OFFSET 0.715260 -0.000000 -0.000000
										CHANNELS 3 Zrotation Yrotation Xrotation
										End Site
										{
											OFFSET 0.000000 0.000000 0.000000
										}
									}
								}
								JOINT LThumb
								{
									OFFSET 0.000000 0.000000 0.000000
									CHANNELS 3 Zrotation Yrotation Xrotation
									End Site
									{
										OFFSET 0.000000 0.000000 0.000000
									}
								}
							}
						}
					}
				}
				JOINT RightShoulder
				{
					OFFSET 0.000000 0.000000 0.000000
					CHANNELS 3 Zrotation Yrotation Xrotation
					JOINT RightArm
					{
						OFFSET -3.136600 1.374050 -0.404650
						CHANNELS 3 Zrotation Yrotation Xrotation
						JOINT RightForeArm
						{
							OFFSET -5.241900 -0.000000 -0.000000
							CHANNELS 3 Zrotation Yrotation Xrotation
							JOINT RightHand
							{
								OFFSET -3.444170 -0.000000 -0.000000
								CHANNELS 3 Zrotation Yrotation Xrotation
								JOINT RightFingerBase
								{
									OFFSET 0.000000 0.000000 0.000000
									CHANNELS 3 Zrotation Yrotation Xrotation
									JOINT RightHandIndex1
									{
										OFFSET -0.622530 -0.000000 -0.000000
										CHANNELS 3 Zrotation Yrotation Xrotation
										End Site
										{
											OFFSET 0.000000 0.000000 0.000000
										}
									}
								}
								JOINT RThumb
								{
									OFFSET 0.000000 0.000000 0.000000
									CHANNELS 3 Zrotation Yrotation Xrotation
									End Site
									{
										OFFSET 0.000000 0.000000 0.000000
									}
								}
							}
						}
					}
				}
			}
		}
	}
}
MOTION
Frames: 6
Frame Time: 0.008333
0.005084 -0.008860 0.110950 -0.054367 0.015760 0.019814 0.005316 0.001178 -0.001318 -0.004985 0.056929 0.016031 -0.002287 -0.032127 -0.080112 0.080404 -0.599209 0.001538 -0.042079 0.613604 1.691218 -0.015153 -0.017843 0.007963 -0.064272 0.038285 0.405444 -0.005162 0.033031 -0.045853 0.121161 0.266254 0.659901 -0.058817 -0.583534 1.613772 0.011738 -0.006424 -0.116473 -0.002725 -0.021454 0.018322 -0.010264 -0.011246 0.095043 -0.033144 0.002250 -0.050274 0.069883 -0.002729 0.000571 0.037021 0.000095 0.008274 0.000748 -0.000937 0.006446 -0.062344 0.046972 -0.832234 -0.052583 0.101641 0.014938 -0.011496 0.000969 0.333577 -0.020050 -0.097768 -0.013002 0.000000 0.000000 0.000000 -0.007943 -0.089123 0.027990 -0.004248 -0.006112 -0.000098 0.001527 -0.014694 -0.003934 0.037805 -0.014638 0.029413 0.007724 0.000860 0.298044 0.466733 0.015735 -0.274273 -0.000000 0.000000 0.000000 0.519847 0.139288 -0.204677
0.070739 0.198577 0.901011 0.058438 0.056023 0.175770 0.162395 0.073018 0.102994 0.240516 0.193531 0.781094 -0.012833 0.042282 0.143929 0.014786 -0.542583 0.234946 -0.022967 0.979464 2.673991 -0.008765 0.000736 0.078285 0.096970 0.089339 0.480211 0.029679 0.095425 0.001911 0.124662 0.634771 0.795510 -0.080768 -0.591359 1.574973 -0.016895 0.002873 -0.149177 -0.011033 -0.025554 -0.024044 -0.038431 0.010122 0.008799 -0.006849 -0.004056 -0.245621 0.010289 0.046210 0.104833 0.102763 0.047999 0.068836 0.018786 0.032292 0.006727 -0.241056 0.134237 -0.166950 -0.053542 0.297119 0.063831 -0.036497 0.002828 0.690464 0.203022 0.316617 0.351092 0.000767 0.000000 0.000000 0.844733 0.927708 1.004293 0.034362 0.101288 0.026916 0.532744 0.512164 0.126987 0.390546 0.496436 -0.141468 -0.007179 0.031943 0.463984 1.387780 0.492122 0.663015 0.044646 0.000000 0.000000 0.713936 0.030130 -1.061332
0.034256 0.102314 0.501257 0.001339 -0.152146 0.023398 0.072132 0.018270 0.074941 0.121786 -0.013354 1.009262 -0.125979 -0.035684 -0.034864 -0.139902 -0.654082 0.137550 -0.059030 1.196447 3.024572 -0.177537 -0.035052 0.051582 -0.045383 -0.055031 0.285121 0.008485 0.093356 -0.246071 0.077937 0.783006 0.548779 -0.137597 -0.656280 1.292412 -0.100309 -0.008730 -0.259273 -0.043733 -0.052106 -0.102113 -0.088024 0.022903 -0.176250 -0.042198 -0.074007 -0.470829 -0.080790 -0.024502 0.007551 0.050937 0.020433 0.032282 -0.077932 -0.020496 -0.017477 -0.924911 0.022621 -0.079947 -0.285062 0.191956 0.028157 -0.092830 -0.032501 0.374246 0.051539 -0.004701 0.332055 -0.057202 0.000000 0.000000 0.280441 0.003492 0.282130 -0.206541 0.034737 0.003744 0.270900 0.772577 -0.323296 0.108842 0.399221 -0.670309 -0.052424 0.019688 0.244971 -0.105118 -0.021884 0.185520 0.043119 0.000000 0.000000 0.219552 -0.580600 -3.013900
0.061517 0.149364 0.645332 0.056320 -0.182661 0.077970 0.173333 0.048003 0.124095 0.228817 -0.105416 1.503639 -0.193143 -0.038769 -0.071350 -0.278691 -0.686297 0.107788 -0.078800 1.458028 3.502812 -0.261090 -0.035733 0.092340 0.016914 -0.090419 0.306788 0.029367 0.162979 -0.276750 0.091937 1.219987 0.694385 -0.146981 -0.589023 1.369747 -0.086589 0.030801 -0.211629 -0.027037 -0.012726 -0.066118 -0.066552 0.068823 -0.226833 0.059552 -0.049378 -0.509877 -0.082790 0.038216 0.094231 0.098083 0.048654 0.117094 -0.047730 0.034150 -0.015299 -0.957869 0.118421 0.567655 -0.371416 0.304036 0.045594 -0.132385 -0.031026 0.463873 0.140147 0.010841 0.473525 -0.081983 0.000000 0.000000 0.385904 -0.114533 0.362646 -0.325498 0.058008 0.013429 0.477397 1.229517 -0.488420 0.188464 0.641708 -0.979651 -0.069444 0.035375 0.297448 0.132779 0.275896 1.049661 0.070986 0.000000 0.000000 1.466257 -0.242620 -3.120341
0.215543 0.222481 0.843012 0.181351 -0.126688 0.194886 0.335697 0.100953 0.196253 0.454018 -0.178809 1.908449 -0.279464 -0.015720 -0.008135 -0.367447 -0.593723 0.155043 -0.071270 1.688216 3.726275 -0.252288 -0.005309 0.182146 0.307321 -0.069127 0.491886 0.047784 0.227861 -0.170774 0.152335 1.694601 1.179646 -0.144964 -0.481875 1.493407 -0.016184 0.077094 -0.137285 -0.001636 0.029126 -0.005590 -0.028828 0.101994 -0.212929 0.144260 -0.048338 -0.519101 -0.062732 0.064690 0.118186 0.107260 0.013552 0.185525 -0.046492 0.060988 -0.013653 -0.967877 0.203414 0.727626 -0.381098 0.307645 0.034656 -0.164168 -0.048702 0.429304 0.186499 0.022248 0.554565 -0.093210 0.000000 0.000000 0.595272 -0.032446 0.750948 -0.415090 0.056105 0.031217 0.815567 1.553208 -0.388678 0.070799 0.741790 -1.142848 -0.081350 0.031112 0.207308 -0.533310 -0.022813 0.967550 0.067422 0.000000 0.000000 1.595947 -0.598441 -4.316333
0.240826 0.109284 0.226129 0.207305 -0.307878 0.009832 0.232997 -0.031576 0.095758 0.316640 -0.573069 1.795155 -0.553681 -0.228194 -0.550239 -0.448763 -0.322877 0.039009 -0.080577 1.635324 3.452617 -0.384085 -0.028947 0.180354 0.353960 -0.221869 0.428882 0.018668 0.223780 -0.388141 0.139047 1.721813 1.246490 -0.185324 -0.475202 1.176336 -0.017209 0.083307 -0.181526 -0.013541 0.023417 -0.015945 -0.034474 0.100055 -0.292343 0.149678 -0.104155 -0.501970 -0.068524 0.002613 0.010598 0.020325 -0.086527 0.174906 -0.137923 -0.003110 -0.034246 -1.451102 0.123067 0.213777 -0.501927 0.089537 -0.029440 -0.184397 -0.064721 0.042297 0.045087 -0.562183 0.356289 -0.138151 0.000000 0.000000 -0.088926 -1.050571 0.190016 -0.658710 -0.009370 0.025512 0.831241 1.576133 -0.427858 -0.237845 0.696880 -1.155676 -0.083612 0.012445 0.016150 -1.958255 -0.553993 0.634638 0.052811 0.000000 0.000000 1.541042 -1.102325 -4.864880
